<svg width="1920" xmlns="http://www.w3.org/2000/svg" height="1080" id="screenshot-aaddc815-19f1-80cb-8006-a7fa6c1939ec" viewBox="0 0 1920 1080" xmlns:xlink="http://www.w3.org/1999/xlink" fill="none" version="1.1"><style>@font-face {
    font-family: 'sourcesanspro';
    font-style: normal;
    font-weight: 400;
    font-display: block;
    src: url(http://penpot-frontend:8080/fonts/sourcesanspro-regular.woff) format('woff');
  }</style><g id="shape-aaddc815-19f1-80cb-8006-a7fa6c1939ec"><defs><clipPath id="frame-clip-aaddc815-19f1-80cb-8006-a7fa6c1939ec-render-1" class="frame-clip frame-clip-def"><rect rx="0" ry="0" x="0" y="0" width="1920" height="1080" transform="matrix(1.000000, 0.000000, 0.000000, 1.000000, 0.000000, 0.000000)"/></clipPath></defs><g class="frame-container-wrapper"><g class="frame-container-blur"><g class="frame-container-shadows"><g clip-path="url(#frame-clip-aaddc815-19f1-80cb-8006-a7fa6c1939ec-render-1)" fill="none"><g class="fills" id="fills-aaddc815-19f1-80cb-8006-a7fa6c1939ec"><rect width="1920" height="1080" class="frame-background" x="0" transform="matrix(1.000000, 0.000000, 0.000000, 1.000000, 0.000000, 0.000000)" style="fill: rgb(191, 128, 255); fill-opacity: 1;" ry="0" rx="0" y="0"/></g><g class="frame-children"><g id="shape-b4b9e68a-5606-803b-8006-a94fcf112d26" rx="0" ry="0"><g id="shape-b4b9e68a-5606-803b-8006-a949f451c9cb"><defs><linearGradient id="fill-color-gradient-render-3-0" x1="0" y1="0.5000000000000003" x2="1" y2="0.49999999999999967" gradientTransform=""><stop offset="0" stop-color="#8f52cc" stop-opacity="1"/><stop offset="1" stop-color="#bf80ff" stop-opacity="1"/></linearGradient><pattern patternUnits="userSpaceOnUse" x="0" y="0" width="900.0000000000002" height="1080" id="fill-0-render-3"><g><rect width="900.0000000000002" height="1080" style="fill: url(&quot;#fill-color-gradient-render-3-0&quot;);"/></g></pattern></defs><g class="fills" id="fills-b4b9e68a-5606-803b-8006-a949f451c9cb"><rect rx="0" ry="0" x="0" y="0" transform="matrix(1.000000, 0.000000, 0.000000, 1.000000, 0.000000, 0.000000)" width="900.0000000000002" height="1080" fill="url(#fill-0-render-3)"/></g></g><g id="shape-91bbaa7b-c7c4-80d9-8006-a9581aabfb22"><g class="frame-container-wrapper"><g class="frame-container-blur"><g class="frame-container-shadows"><g fill="none"><g class="fills" id="fills-91bbaa7b-c7c4-80d9-8006-a9581aabfb22"><rect rx="0" ry="0" x="90" y="610" width="535" height="60" transform="matrix(1.000000, 0.000000, 0.000000, 1.000000, 0.000000, 0.000000)" class="frame-background"/></g><g class="frame-children"><g id="shape-91bbaa7b-c7c4-80d9-8006-a9581aabfb23"><g class="fills" id="fills-91bbaa7b-c7c4-80d9-8006-a9581aabfb23"><rect rx="30" ry="30" x="90" y="610" transform="matrix(1.000000, 0.000000, 0.000000, 1.000000, 0.000000, 0.000000)" width="535" height="60" style="fill: rgb(158, 75, 240); fill-opacity: 1;"/></g></g><g id="shape-91bbaa7b-c7c4-80d9-8006-a9581aabfb24"><g transform="matrix(1.000000, 0.000000, 0.000000, 1.000000, 0.000000, 0.000000)" class="text-container" x="320" y="627" width="75" height="24" rx="0" ry="0"><defs><pattern patternUnits="objectBoundingBox" width="73.08332824707031" height="31.5" id="fill-0-render-6-0"><g><rect width="73.08332824707031" height="31.5" style="fill: rgb(0, 0, 0); fill-opacity: 1;"/></g></pattern></defs><g class="fills" id="fills-91bbaa7b-c7c4-80d9-8006-a9581aabfb24"><text x="320" y="657.1499938964844" dominant-baseline="ideographic" textLength="73.08332824707031" lengthAdjust="spacingAndGlyphs" style="text-transform: none; font-family: sourcesanspro; letter-spacing: normal; font-style: normal; font-weight: 400; white-space: pre; font-size: 24px; text-decoration: rgb(0, 0, 0); direction: ltr; fill: rgb(0, 0, 0); fill-opacity: 1;">Submit</text></g></g></g></g></g></g></g></g></g><g id="shape-91bbaa7b-c7c4-80d9-8006-a954f08f74f1"><g class="frame-container-wrapper"><g class="frame-container-blur"><g class="frame-container-shadows"><g fill="none"><g class="fills" id="fills-91bbaa7b-c7c4-80d9-8006-a954f08f74f1"><rect rx="0" ry="0" x="90" y="450" width="535" height="95" transform="matrix(1.000000, 0.000000, 0.000000, 1.000000, 0.000000, 0.000000)" class="frame-background"/></g><g class="frame-children"><g id="shape-91bbaa7b-c7c4-80d9-8006-a954f08f74f2"><g class="fills" id="fills-91bbaa7b-c7c4-80d9-8006-a954f08f74f2"><rect rx="30" ry="30" x="90" y="485" transform="matrix(1.000000, 0.000000, 0.000000, 1.000000, 0.000000, 0.000000)" width="535" height="60" style="fill: rgb(249, 242, 241); fill-opacity: 1;"/></g></g><g id="shape-91bbaa7b-c7c4-80d9-8006-a954f08f74f3"><g transform="matrix(1.000000, 0.000000, 0.000000, 1.000000, 0.000000, 0.000000)" class="text-container" x="110" y="450" width="110" height="30" rx="0" ry="0"><defs><pattern patternUnits="objectBoundingBox" width="96.69999694824219" height="31.5" id="fill-0-render-9-0"><g><rect width="96.69999694824219" height="31.5" style="fill: rgb(0, 0, 0); fill-opacity: 1;"/></g></pattern></defs><g class="fills" id="fills-91bbaa7b-c7c4-80d9-8006-a954f08f74f3"><text x="110" y="480.1499938964844" dominant-baseline="ideographic" textLength="96.69999694824219" lengthAdjust="spacingAndGlyphs" style="text-transform: none; font-family: sourcesanspro; letter-spacing: normal; font-style: normal; font-weight: 400; white-space: pre; font-size: 24px; text-decoration: rgb(0, 0, 0); direction: ltr; fill: rgb(0, 0, 0); fill-opacity: 1;">Password</text></g></g></g></g></g></g></g></g></g><g id="shape-91bbaa7b-c7c4-80d9-8006-a954e5c4cf85"><g class="frame-container-wrapper"><g class="frame-container-blur"><g class="frame-container-shadows"><g fill="none"><g class="fills" id="fills-91bbaa7b-c7c4-80d9-8006-a954e5c4cf85"><rect rx="0" ry="0" x="90" y="325" width="535" height="95" transform="matrix(1.000000, 0.000000, 0.000000, 1.000000, 0.000000, 0.000000)" class="frame-background"/></g><g class="frame-children"><g id="shape-91bbaa7b-c7c4-80d9-8006-a954e5c4cf86"><g class="fills" id="fills-91bbaa7b-c7c4-80d9-8006-a954e5c4cf86"><rect rx="30" ry="30" x="90" y="360" transform="matrix(1.000000, 0.000000, 0.000000, 1.000000, 0.000000, 0.000000)" width="535" height="60" style="fill: rgb(249, 242, 241); fill-opacity: 1;"/></g></g><g id="shape-91bbaa7b-c7c4-80d9-8006-a954e5c4cf87"><g transform="matrix(1.000000, 0.000000, 0.000000, 1.000000, 0.000000, 0.000000)" class="text-container" x="110" y="325" width="110" height="30" rx="0" ry="0"><defs><pattern patternUnits="objectBoundingBox" width="102.85000610351562" height="31.5" id="fill-0-render-12-0"><g><rect width="102.85000610351562" height="31.5" style="fill: rgb(0, 0, 0); fill-opacity: 1;"/></g></pattern></defs><g class="fills" id="fills-91bbaa7b-c7c4-80d9-8006-a954e5c4cf87"><text x="110" y="355.1499938964844" dominant-baseline="ideographic" textLength="102.85000610351562" lengthAdjust="spacingAndGlyphs" style="text-transform: none; font-family: sourcesanspro; letter-spacing: normal; font-style: normal; font-weight: 400; white-space: pre; font-size: 24px; text-decoration: rgb(0, 0, 0); direction: ltr; fill: rgb(0, 0, 0); fill-opacity: 1;">Username</text></g></g></g></g></g></g></g></g></g><g id="shape-b4b9e68a-5606-803b-8006-a94f0fc7550b"><g transform="matrix(1.000000, 0.000000, 0.000000, 1.000000, 0.000000, 0.000000)" class="text-container" x="105" y="193" width="167" height="87" rx="0" ry="0"><defs><pattern patternUnits="objectBoundingBox" width="166.46665954589844" height="94" id="fill-0-render-13-0"><g><rect width="166.46665954589844" height="94" style="fill: rgb(0, 0, 0); fill-opacity: 1;"/></g></pattern></defs><g class="fills" id="fills-b4b9e68a-5606-803b-8006-a94f0fc7550b"><text x="105" y="283.1999969482422" dominant-baseline="ideographic" textLength="166.46665954589844" lengthAdjust="spacingAndGlyphs" style="text-transform: none; font-family: sourcesanspro; letter-spacing: normal; font-style: normal; font-weight: 400; white-space: pre; font-size: 72px; text-decoration: rgb(0, 0, 0); direction: ltr; fill: rgb(0, 0, 0); fill-opacity: 1;">Login</text></g></g></g></g><g id="shape-b4b9e68a-5606-803b-8006-a94e5cb106da" rx="0" ry="0"><g id="shape-b4b9e68a-5606-803b-8006-a94e5c7bb67a" rx="0" ry="0"><g id="shape-b4b9e68a-5606-803b-8006-a94c242c1e9f" rx="0" ry="0"><g id="shape-b4b9e68a-5606-803b-8006-a94ab40f7190"><g class="fills" id="fills-b4b9e68a-5606-803b-8006-a94ab40f7190"><rect rx="40" ry="40" x="1213" y="403" transform="matrix(1.000000, 0.000000, 0.000000, 1.000000, 0.000000, 0.000000)" width="450" height="450" style="fill: rgb(158, 75, 240); fill-opacity: 1;"/></g></g><g id="shape-b4b9e68a-5606-803b-8006-a94bbfbe3dda"><g class="fills" id="fills-b4b9e68a-5606-803b-8006-a94bbfbe3dda"><path d="M1438,303C1410.404296875,303,1388,325.40423583984375,1388,353C1388,353,1388,353,1388,353L1288,353C1288,353,1288,353,1288,353C1288,270.2127380371094,1355.2127685546875,203,1438,203C1520.7872314453125,203,1588,270.2127380371094,1588,353C1588,353,1588,353,1588,353L1488,353C1488,353,1488,353,1488,353C1488,325.40423583984375,1465.595703125,303,1438,303" style="fill: rgb(158, 75, 240); fill-opacity: 1;"/></g></g><g id="shape-b4b9e68a-5606-803b-8006-a94bc99a42ef"><g class="fills" id="fills-b4b9e68a-5606-803b-8006-a94bc99a42ef"><rect rx="0" ry="0" x="1288" y="350" transform="matrix(1.000000, 0.000000, 0.000000, 1.000000, 0.000000, 0.000000)" width="100" height="179" style="fill: rgb(158, 75, 240); fill-opacity: 1;"/></g></g><g id="shape-b4b9e68a-5606-803b-8006-a94bd58be373"><g class="fills" id="fills-b4b9e68a-5606-803b-8006-a94bd58be373"><rect rx="0" ry="0" x="1488.0000000000018" y="350.00000000000045" transform="matrix(1.000000, 0.000000, 0.000000, 1.000000, 0.000000, 0.000000)" width="100" height="179" style="fill: rgb(158, 75, 240); fill-opacity: 1;"/></g></g></g><g id="shape-91bbaa7b-c7c4-80d9-8006-a961aae08ebc"><g class="fills" id="fills-91bbaa7b-c7c4-80d9-8006-a961aae08ebc"><path d="M1413,632.3020629882812C1398.0595703125,623.6515502929688,1388,607.4912719726562,1388,589C1388,561.4042358398438,1410.404296875,539,1438,539C1465.595703125,539,1488,561.4042358398438,1488,589C1488,607.4912719726562,1477.9404296875,623.6515502929688,1463,632.3020629882812L1463,692C1463,705.7978515625,1451.7978515625,717,1438,717L1438,717C1424.2021484375,717,1413,705.7978515625,1413,692L1413,632.3020629882812" style="fill: rgb(191, 128, 255); fill-opacity: 1;"/></g></g></g></g><g id="shape-91bbaa7b-c7c4-80d9-8006-a9585272628d"><g transform="matrix(1.000000, 0.000000, 0.000000, 1.000000, 0.000000, 0.000000)" class="text-container" x="109.99999999999999" y="683" width="133.00000000000003" height="34" rx="0" ry="0"><defs><pattern patternUnits="objectBoundingBox" width="132.89999389648438" height="24" id="fill-0-render-22-0"><g><rect width="132.89999389648438" height="24" style="fill: rgb(0, 0, 0); fill-opacity: 1;"/></g></pattern></defs><g class="fills" id="fills-91bbaa7b-c7c4-80d9-8006-a9585272628d"><text x="109.99999999999999" y="705.8000030517578" dominant-baseline="ideographic" textLength="132.89999389648438" lengthAdjust="spacingAndGlyphs" style="text-transform: none; font-family: sourcesanspro; letter-spacing: normal; font-style: normal; font-weight: 400; white-space: pre; font-size: 18px; text-decoration: rgb(0, 0, 0); direction: ltr; fill: rgb(0, 0, 0); fill-opacity: 1;">Forgot Password?</text></g></g></g></g></g></g></g></g></g></svg>