<svg width="1920" xmlns="http://www.w3.org/2000/svg" height="1080" id="screenshot-91bbaa7b-c7c4-80d9-8006-a96418b42040" viewBox="0 0 1920 1080" xmlns:xlink="http://www.w3.org/1999/xlink" fill="none" version="1.1"><style>@font-face {
    font-family: 'sourcesanspro';
    font-style: normal;
    font-weight: 400;
    font-display: block;
    src: url(http://penpot-frontend:8080/fonts/sourcesanspro-regular.woff) format('woff');
  }</style><g id="shape-91bbaa7b-c7c4-80d9-8006-a96418b42040"><defs><clipPath id="frame-clip-91bbaa7b-c7c4-80d9-8006-a96418b42040-render-1" class="frame-clip frame-clip-def"><rect rx="0" ry="0" x="0" y="0" width="1920" height="1080" transform="matrix(1.000000, 0.000000, 0.000000, 1.000000, 0.000000, 0.000000)"/></clipPath></defs><g class="frame-container-wrapper"><g class="frame-container-blur"><g class="frame-container-shadows"><g clip-path="url(#frame-clip-91bbaa7b-c7c4-80d9-8006-a96418b42040-render-1)" fill="none"><g class="fills" id="fills-91bbaa7b-c7c4-80d9-8006-a96418b42040"><rect width="1920" height="1080" class="frame-background" x="0" transform="matrix(1.000000, 0.000000, 0.000000, 1.000000, 0.000000, 0.000000)" style="fill: rgb(61, 20, 102); fill-opacity: 1;" ry="0" rx="0" y="0"/></g><g class="frame-children"><g id="shape-91bbaa7b-c7c4-80d9-8006-a96418b42041" rx="0" ry="0"><g id="shape-91bbaa7b-c7c4-80d9-8006-a96418b42044"><defs><linearGradient id="fill-color-gradient-render-3-0" x1="0" y1="0.5000000000000003" x2="1" y2="0.49999999999999967" gradientTransform=""><stop offset="0" stop-color="#8f52cc" stop-opacity="1"/><stop offset="0.3" stop-color="#663399" stop-opacity="1"/><stop offset="0.5" stop-color="#51237f" stop-opacity="1"/><stop offset="0.72" stop-color="#471b72" stop-opacity="1"/><stop offset="0.9" stop-color="#3d1466" stop-opacity="1"/></linearGradient><pattern patternUnits="userSpaceOnUse" x="0" y="0" width="900" height="1080" id="fill-0-render-3"><g><rect width="900" height="1080" style="fill: url(&quot;#fill-color-gradient-render-3-0&quot;);"/></g></pattern></defs><g class="fills" id="fills-91bbaa7b-c7c4-80d9-8006-a96418b42044"><rect rx="0" ry="0" x="0" y="0" transform="matrix(1.000000, 0.000000, 0.000000, 1.000000, 0.000000, 0.000000)" width="900" height="1080" fill="url(#fill-0-render-3)"/></g></g><g id="shape-91bbaa7b-c7c4-80d9-8006-a96418b42045"><g class="frame-container-wrapper"><g class="frame-container-blur"><g class="frame-container-shadows"><g fill="none"><g class="fills" id="fills-91bbaa7b-c7c4-80d9-8006-a96418b42045"><rect rx="0" ry="0" x="90" y="610" width="535" height="60" transform="matrix(1.000000, 0.000000, 0.000000, 1.000000, 0.000000, 0.000000)" class="frame-background"/></g><g class="frame-children"><g id="shape-91bbaa7b-c7c4-80d9-8006-a96418b42049"><g class="fills" id="fills-91bbaa7b-c7c4-80d9-8006-a96418b42049"><rect rx="30" ry="30" x="90" y="610" transform="matrix(1.000000, 0.000000, 0.000000, 1.000000, 0.000000, 0.000000)" width="535" height="60" style="fill: rgb(131, 49, 218); fill-opacity: 1;"/></g></g><g id="shape-91bbaa7b-c7c4-80d9-8006-a96418b4204a"><g transform="matrix(1.000000, 0.000000, 0.000000, 1.000000, 0.000000, 0.000000)" class="text-container" x="320" y="627" width="75" height="24" rx="0" ry="0"><defs><pattern patternUnits="objectBoundingBox" width="73.08332824707031" height="31.5" id="fill-0-render-6-0"><g><rect width="73.08332824707031" height="31.5" style="fill: rgb(0, 0, 0); fill-opacity: 1;"/></g></pattern></defs><g class="fills" id="fills-91bbaa7b-c7c4-80d9-8006-a96418b4204a"><text x="320" y="657.1499938964844" dominant-baseline="ideographic" textLength="73.08332824707031" lengthAdjust="spacingAndGlyphs" style="text-transform: none; font-family: sourcesanspro; letter-spacing: normal; font-style: normal; font-weight: 400; white-space: pre; font-size: 24px; text-decoration: rgb(0, 0, 0); direction: ltr; fill: rgb(0, 0, 0); fill-opacity: 1;">Submit</text></g></g></g></g></g></g></g></g></g><g id="shape-91bbaa7b-c7c4-80d9-8006-a96418b42046"><g class="frame-container-wrapper"><g class="frame-container-blur"><g class="frame-container-shadows"><g fill="none"><g class="fills" id="fills-91bbaa7b-c7c4-80d9-8006-a96418b42046"><rect rx="0" ry="0" x="90" y="450" width="535" height="95" transform="matrix(1.000000, 0.000000, 0.000000, 1.000000, 0.000000, 0.000000)" class="frame-background"/></g><g class="frame-children"><g id="shape-91bbaa7b-c7c4-80d9-8006-a96418b4204b"><g class="fills" id="fills-91bbaa7b-c7c4-80d9-8006-a96418b4204b"><rect rx="30" ry="30" x="90" y="485" transform="matrix(1.000000, 0.000000, 0.000000, 1.000000, 0.000000, 0.000000)" width="535" height="60" style="fill: rgb(249, 242, 241); fill-opacity: 1;"/></g></g><g id="shape-91bbaa7b-c7c4-80d9-8006-a96418b4204c"><g transform="matrix(1.000000, 0.000000, 0.000000, 1.000000, 0.000000, 0.000000)" class="text-container" x="110" y="450" width="110" height="30" rx="0" ry="0"><defs><pattern patternUnits="objectBoundingBox" width="96.69999694824219" height="31.5" id="fill-0-render-9-0"><g><rect width="96.69999694824219" height="31.5" style="fill: rgb(0, 0, 0); fill-opacity: 1;"/></g></pattern></defs><g class="fills" id="fills-91bbaa7b-c7c4-80d9-8006-a96418b4204c"><text x="110" y="480.1499938964844" dominant-baseline="ideographic" textLength="96.69999694824219" lengthAdjust="spacingAndGlyphs" style="text-transform: none; font-family: sourcesanspro; letter-spacing: normal; font-style: normal; font-weight: 400; white-space: pre; font-size: 24px; text-decoration: rgb(0, 0, 0); direction: ltr; fill: rgb(0, 0, 0); fill-opacity: 1;">Password</text></g></g></g></g></g></g></g></g></g><g id="shape-91bbaa7b-c7c4-80d9-8006-a96418b42047"><g class="frame-container-wrapper"><g class="frame-container-blur"><g class="frame-container-shadows"><g fill="none"><g class="fills" id="fills-91bbaa7b-c7c4-80d9-8006-a96418b42047"><rect rx="0" ry="0" x="90" y="325" width="535" height="95" transform="matrix(1.000000, 0.000000, 0.000000, 1.000000, 0.000000, 0.000000)" class="frame-background"/></g><g class="frame-children"><g id="shape-91bbaa7b-c7c4-80d9-8006-a96418b4204d"><g class="fills" id="fills-91bbaa7b-c7c4-80d9-8006-a96418b4204d"><rect rx="30" ry="30" x="90" y="360" transform="matrix(1.000000, 0.000000, 0.000000, 1.000000, 0.000000, 0.000000)" width="535" height="60" style="fill: rgb(249, 242, 241); fill-opacity: 1;"/></g></g><g id="shape-91bbaa7b-c7c4-80d9-8006-a96418b4204e"><g transform="matrix(1.000000, 0.000000, 0.000000, 1.000000, 0.000000, 0.000000)" class="text-container" x="110" y="325" width="110" height="30" rx="0" ry="0"><defs><pattern patternUnits="objectBoundingBox" width="102.85000610351562" height="31.5" id="fill-0-render-12-0"><g><rect width="102.85000610351562" height="31.5" style="fill: rgb(0, 0, 0); fill-opacity: 1;"/></g></pattern></defs><g class="fills" id="fills-91bbaa7b-c7c4-80d9-8006-a96418b4204e"><text x="110" y="355.1499938964844" dominant-baseline="ideographic" textLength="102.85000610351562" lengthAdjust="spacingAndGlyphs" style="text-transform: none; font-family: sourcesanspro; letter-spacing: normal; font-style: normal; font-weight: 400; white-space: pre; font-size: 24px; text-decoration: rgb(0, 0, 0); direction: ltr; fill: rgb(0, 0, 0); fill-opacity: 1;">Username</text></g></g></g></g></g></g></g></g></g><g id="shape-91bbaa7b-c7c4-80d9-8006-a96418b42048"><g transform="matrix(1.000000, 0.000000, 0.000000, 1.000000, 0.000000, 0.000000)" class="text-container" x="105" y="193" width="167" height="87" rx="0" ry="0"><defs><pattern patternUnits="objectBoundingBox" width="166.46665954589844" height="94" id="fill-0-render-13-0"><g><rect width="166.46665954589844" height="94" style="fill: rgb(0, 0, 0); fill-opacity: 1;"/></g></pattern></defs><g class="fills" id="fills-91bbaa7b-c7c4-80d9-8006-a96418b42048"><text x="105" y="283.1999969482422" dominant-baseline="ideographic" textLength="166.46665954589844" lengthAdjust="spacingAndGlyphs" style="text-transform: none; font-family: sourcesanspro; letter-spacing: normal; font-style: normal; font-weight: 400; white-space: pre; font-size: 72px; text-decoration: rgb(0, 0, 0); direction: ltr; fill: rgb(0, 0, 0); fill-opacity: 1;">Login</text></g></g></g></g><g id="shape-91bbaa7b-c7c4-80d9-8006-a96418b42042" rx="0" ry="0"><g id="shape-91bbaa7b-c7c4-80d9-8006-a96418b4204f" rx="0" ry="0"><g id="shape-91bbaa7b-c7c4-80d9-8006-a96418b42050" rx="0" ry="0"><g id="shape-91bbaa7b-c7c4-80d9-8006-a96418b42052"><g class="fills" id="fills-91bbaa7b-c7c4-80d9-8006-a96418b42052"><rect rx="40" ry="40" x="1213" y="403" transform="matrix(1.000000, 0.000000, 0.000000, 1.000000, 0.000000, 0.000000)" width="450" height="450" style="fill: rgb(131, 49, 218); fill-opacity: 1;"/></g></g><g id="shape-91bbaa7b-c7c4-80d9-8006-a96418b42053"><g class="fills" id="fills-91bbaa7b-c7c4-80d9-8006-a96418b42053"><path d="M1438,303C1410.404296875,303,1388,325.40423583984375,1388,353C1388,353,1388,353,1388,353L1288,353C1288,353,1288,353,1288,353C1288,270.2127380371094,1355.212646484375,203,1438,203C1520.787353515625,203,1588,270.2127380371094,1588,353C1588,353,1588,353,1588,353L1488,353C1488,353,1488,353,1488,353C1488,325.40423583984375,1465.595703125,303,1438,303" style="fill: rgb(131, 49, 218); fill-opacity: 1;"/></g></g><g id="shape-91bbaa7b-c7c4-80d9-8006-a96418b42054"><g class="fills" id="fills-91bbaa7b-c7c4-80d9-8006-a96418b42054"><rect rx="0" ry="0" x="1288" y="350" transform="matrix(1.000000, 0.000000, 0.000000, 1.000000, 0.000000, 0.000000)" width="100" height="179" style="fill: rgb(131, 49, 218); fill-opacity: 1;"/></g></g><g id="shape-91bbaa7b-c7c4-80d9-8006-a96418b42055"><g class="fills" id="fills-91bbaa7b-c7c4-80d9-8006-a96418b42055"><rect rx="0" ry="0" x="1488.0000000000018" y="350.00000000000045" transform="matrix(1.000000, 0.000000, 0.000000, 1.000000, 0.000000, 0.000000)" width="100" height="179" style="fill: rgb(131, 49, 218); fill-opacity: 1;"/></g></g></g><g id="shape-91bbaa7b-c7c4-80d9-8006-a96418b42051"><g class="fills" id="fills-91bbaa7b-c7c4-80d9-8006-a96418b42051"><path d="M1413,632.3020629882812C1398.0595703125,623.6515502929688,1388,607.4912719726562,1388,589C1388,561.4042358398438,1410.404296875,539,1438,539C1465.595703125,539,1488,561.4042358398438,1488,589C1488,607.4912719726562,1477.9404296875,623.6515502929688,1463,632.3020629882812L1463,692C1463,705.7978515625,1451.7978515625,717,1438,717L1438,717C1424.2021484375,717,1413,705.7978515625,1413,692L1413,632.3020629882812" style="fill: rgb(61, 20, 102); fill-opacity: 1;"/></g></g></g></g><g id="shape-91bbaa7b-c7c4-80d9-8006-a96418b42043"><g transform="matrix(1.000000, 0.000000, 0.000000, 1.000000, 0.000000, 0.000000)" class="text-container" x="110" y="683" width="133" height="34" rx="0" ry="0"><defs><pattern patternUnits="objectBoundingBox" width="132.89999389648438" height="24" id="fill-0-render-22-0"><g><rect width="132.89999389648438" height="24" style="fill: rgb(0, 0, 0); fill-opacity: 1;"/></g></pattern></defs><g class="fills" id="fills-91bbaa7b-c7c4-80d9-8006-a96418b42043"><text x="110" y="705.8000030517578" dominant-baseline="ideographic" textLength="132.89999389648438" lengthAdjust="spacingAndGlyphs" style="text-transform: none; font-family: sourcesanspro; letter-spacing: normal; font-style: normal; font-weight: 400; white-space: pre; font-size: 18px; text-decoration: rgb(0, 0, 0); direction: ltr; fill: rgb(0, 0, 0); fill-opacity: 1;">Forgot Password?</text></g></g></g></g></g></g></g></g></g></svg>