<svg id="visual" viewBox="0 0 1920 1080" width="1920" height="1080" xmlns="http://www.w3.org/2000/svg" xmlns:xlink="http://www.w3.org/1999/xlink" version="1.1"><rect x="0" y="0" width="1920" height="1080" fill="#1E2030"></rect><path d="M0 850L45.7 826C91.3 802 182.7 754 274.2 758.2C365.7 762.3 457.3 818.7 548.8 836C640.3 853.3 731.7 831.7 823 804.7C914.3 777.7 1005.7 745.3 1097 731.3C1188.3 717.3 1279.7 721.7 1371.2 730C1462.7 738.3 1554.3 750.7 1645.8 770.7C1737.3 790.7 1828.7 818.3 1874.3 832.2L1920 846L1920 1081L1874.3 1081C1828.7 1081 1737.3 1081 1645.8 1081C1554.3 1081 1462.7 1081 1371.2 1081C1279.7 1081 1188.3 1081 1097 1081C1005.7 1081 914.3 1081 823 1081C731.7 1081 640.3 1081 548.8 1081C457.3 1081 365.7 1081 274.2 1081C182.7 1081 91.3 1081 45.7 1081L0 1081Z" fill="#363A4F" stroke-linecap="round" stroke-linejoin="miter"></path></svg>