<svg id="visual" viewBox="0 0 1920 1080" width="1920" height="1080" xmlns="http://www.w3.org/2000/svg" xmlns:xlink="http://www.w3.org/1999/xlink" version="1.1"><rect x="0" y="0" width="1920" height="1080" fill="#181825"></rect><path d="M0 759L45.7 774.2C91.3 789.3 182.7 819.7 274.2 843.5C365.7 867.3 457.3 884.7 548.8 877.3C640.3 870 731.7 838 823 808.8C914.3 779.7 1005.7 753.3 1097 763.5C1188.3 773.7 1279.7 820.3 1371.2 826.2C1462.7 832 1554.3 797 1645.8 798.8C1737.3 800.7 1828.7 839.3 1874.3 858.7L1920 878L1920 1081L1874.3 1081C1828.7 1081 1737.3 1081 1645.8 1081C1554.3 1081 1462.7 1081 1371.2 1081C1279.7 1081 1188.3 1081 1097 1081C1005.7 1081 914.3 1081 823 1081C731.7 1081 640.3 1081 548.8 1081C457.3 1081 365.7 1081 274.2 1081C182.7 1081 91.3 1081 45.7 1081L0 1081Z" fill="#313244" stroke-linecap="round" stroke-linejoin="miter"></path></svg>