<svg id="visual" viewBox="0 0 1920 1080" width="1920" height="1080" xmlns="http://www.w3.org/2000/svg" xmlns:xlink="http://www.w3.org/1999/xlink" version="1.1"><rect x="0" y="0" width="1920" height="1080" fill="#303446"></rect><path d="M0 680L45.7 705.7C91.3 731.3 182.7 782.7 274.2 793.2C365.7 803.7 457.3 773.3 548.8 777.3C640.3 781.3 731.7 819.7 823 809.5C914.3 799.3 1005.7 740.7 1097 711C1188.3 681.3 1279.7 680.7 1371.2 703.3C1462.7 726 1554.3 772 1645.8 788.2C1737.3 804.3 1828.7 790.7 1874.3 783.8L1920 777L1920 1081L1874.3 1081C1828.7 1081 1737.3 1081 1645.8 1081C1554.3 1081 1462.7 1081 1371.2 1081C1279.7 1081 1188.3 1081 1097 1081C1005.7 1081 914.3 1081 823 1081C731.7 1081 640.3 1081 548.8 1081C457.3 1081 365.7 1081 274.2 1081C182.7 1081 91.3 1081 45.7 1081L0 1081Z" fill="#232634" stroke-linecap="round" stroke-linejoin="miter"></path></svg>