<svg id="visual" viewBox="0 0 1920 1080" width="1920" height="1080" xmlns="http://www.w3.org/2000/svg" xmlns:xlink="http://www.w3.org/1999/xlink" version="1.1"><rect x="0" y="0" width="1920" height="1080" fill="#DCE0E8"></rect><path d="M0 862L45.7 873.8C91.3 885.7 182.7 909.3 274.2 900C365.7 890.7 457.3 848.3 548.8 815.7C640.3 783 731.7 760 823 766.5C914.3 773 1005.7 809 1097 804C1188.3 799 1279.7 753 1371.2 725.5C1462.7 698 1554.3 689 1645.8 716.2C1737.3 743.3 1828.7 806.7 1874.3 838.3L1920 870L1920 1081L1874.3 1081C1828.7 1081 1737.3 1081 1645.8 1081C1554.3 1081 1462.7 1081 1371.2 1081C1279.7 1081 1188.3 1081 1097 1081C1005.7 1081 914.3 1081 823 1081C731.7 1081 640.3 1081 548.8 1081C457.3 1081 365.7 1081 274.2 1081C182.7 1081 91.3 1081 45.7 1081L0 1081Z" fill="#CCD0DA" stroke-linecap="round" stroke-linejoin="miter"></path></svg>