<svg id="visual" viewBox="0 0 1920 1080" width="1920" height="1080" xmlns="http://www.w3.org/2000/svg" xmlns:xlink="http://www.w3.org/1999/xlink" version="1.1"><rect x="0" y="0" width="1920" height="1080" fill="#1E1E2E"></rect><path d="M0 746L45.7 776.2C91.3 806.3 182.7 866.7 274.2 883.5C365.7 900.3 457.3 873.7 548.8 847.3C640.3 821 731.7 795 823 793.3C914.3 791.7 1005.7 814.3 1097 834.5C1188.3 854.7 1279.7 872.3 1371.2 846.5C1462.7 820.7 1554.3 751.3 1645.8 754.3C1737.3 757.3 1828.7 832.7 1874.3 870.3L1920 908L1920 1081L1874.3 1081C1828.7 1081 1737.3 1081 1645.8 1081C1554.3 1081 1462.7 1081 1371.2 1081C1279.7 1081 1188.3 1081 1097 1081C1005.7 1081 914.3 1081 823 1081C731.7 1081 640.3 1081 548.8 1081C457.3 1081 365.7 1081 274.2 1081C182.7 1081 91.3 1081 45.7 1081L0 1081Z" fill="#11111B" stroke-linecap="round" stroke-linejoin="miter"></path></svg>