<svg id="visual" viewBox="0 0 1920 1080" width="1920" height="1080" xmlns="http://www.w3.org/2000/svg" xmlns:xlink="http://www.w3.org/1999/xlink" version="1.1"><rect x="0" y="0" width="1920" height="1080" fill="#24273A"></rect><path d="M0 874L45.7 860.7C91.3 847.3 182.7 820.7 274.2 804C365.7 787.3 457.3 780.7 548.8 795.3C640.3 810 731.7 846 823 870.7C914.3 895.3 1005.7 908.7 1097 887.2C1188.3 865.7 1279.7 809.3 1371.2 783.2C1462.7 757 1554.3 761 1645.8 776.3C1737.3 791.7 1828.7 818.3 1874.3 831.7L1920 845L1920 1081L1874.3 1081C1828.7 1081 1737.3 1081 1645.8 1081C1554.3 1081 1462.7 1081 1371.2 1081C1279.7 1081 1188.3 1081 1097 1081C1005.7 1081 914.3 1081 823 1081C731.7 1081 640.3 1081 548.8 1081C457.3 1081 365.7 1081 274.2 1081C182.7 1081 91.3 1081 45.7 1081L0 1081Z" fill="#181926" stroke-linecap="round" stroke-linejoin="miter"></path></svg>