<svg id="visual" viewBox="0 0 1920 1080" width="1920" height="1080" xmlns="http://www.w3.org/2000/svg" xmlns:xlink="http://www.w3.org/1999/xlink" version="1.1"><rect x="0" y="0" width="1920" height="1080" fill="#E6E9EF"></rect><path d="M0 826L45.7 805C91.3 784 182.7 742 274.2 725C365.7 708 457.3 716 548.8 731.3C640.3 746.7 731.7 769.3 823 791.8C914.3 814.3 1005.7 836.7 1097 851.2C1188.3 865.7 1279.7 872.3 1371.2 855.7C1462.7 839 1554.3 799 1645.8 775.5C1737.3 752 1828.7 745 1874.3 741.5L1920 738L1920 1081L1874.3 1081C1828.7 1081 1737.3 1081 1645.8 1081C1554.3 1081 1462.7 1081 1371.2 1081C1279.7 1081 1188.3 1081 1097 1081C1005.7 1081 914.3 1081 823 1081C731.7 1081 640.3 1081 548.8 1081C457.3 1081 365.7 1081 274.2 1081C182.7 1081 91.3 1081 45.7 1081L0 1081Z" fill="#CCD0DA" stroke-linecap="round" stroke-linejoin="miter"></path></svg>