<svg id="visual" viewBox="0 0 1920 1080" width="1920" height="1080" xmlns="http://www.w3.org/2000/svg" xmlns:xlink="http://www.w3.org/1999/xlink" version="1.1"><rect x="0" y="0" width="1920" height="1080" fill="#1E2030"></rect><path d="M0 676L45.7 690.5C91.3 705 182.7 734 274.2 731.3C365.7 728.7 457.3 694.3 548.8 679.8C640.3 665.3 731.7 670.7 823 690.5C914.3 710.3 1005.7 744.7 1097 749.8C1188.3 755 1279.7 731 1371.2 724.3C1462.7 717.7 1554.3 728.3 1645.8 722.8C1737.3 717.3 1828.7 695.7 1874.3 684.8L1920 674L1920 1081L1874.3 1081C1828.7 1081 1737.3 1081 1645.8 1081C1554.3 1081 1462.7 1081 1371.2 1081C1279.7 1081 1188.3 1081 1097 1081C1005.7 1081 914.3 1081 823 1081C731.7 1081 640.3 1081 548.8 1081C457.3 1081 365.7 1081 274.2 1081C182.7 1081 91.3 1081 45.7 1081L0 1081Z" fill="#939ab7"></path><path d="M0 836L45.7 824.5C91.3 813 182.7 790 274.2 779.3C365.7 768.7 457.3 770.3 548.8 778.3C640.3 786.3 731.7 800.7 823 812.5C914.3 824.3 1005.7 833.7 1097 833.8C1188.3 834 1279.7 825 1371.2 812.2C1462.7 799.3 1554.3 782.7 1645.8 774.5C1737.3 766.3 1828.7 766.7 1874.3 766.8L1920 767L1920 1081L1874.3 1081C1828.7 1081 1737.3 1081 1645.8 1081C1554.3 1081 1462.7 1081 1371.2 1081C1279.7 1081 1188.3 1081 1097 1081C1005.7 1081 914.3 1081 823 1081C731.7 1081 640.3 1081 548.8 1081C457.3 1081 365.7 1081 274.2 1081C182.7 1081 91.3 1081 45.7 1081L0 1081Z" fill="#636881"></path><path d="M0 1011L45.7 997.7C91.3 984.3 182.7 957.7 274.2 943.2C365.7 928.7 457.3 926.3 548.8 935.7C640.3 945 731.7 966 823 970C914.3 974 1005.7 961 1097 959.3C1188.3 957.7 1279.7 967.3 1371.2 967C1462.7 966.7 1554.3 956.3 1645.8 951.2C1737.3 946 1828.7 946 1874.3 946L1920 946L1920 1081L1874.3 1081C1828.7 1081 1737.3 1081 1645.8 1081C1554.3 1081 1462.7 1081 1371.2 1081C1279.7 1081 1188.3 1081 1097 1081C1005.7 1081 914.3 1081 823 1081C731.7 1081 640.3 1081 548.8 1081C457.3 1081 365.7 1081 274.2 1081C182.7 1081 91.3 1081 45.7 1081L0 1081Z" fill="#363a4f"></path></svg>