<svg id="visual" viewBox="0 0 1920 1080" width="1920" height="1080" xmlns="http://www.w3.org/2000/svg" xmlns:xlink="http://www.w3.org/1999/xlink" version="1.1"><rect x="0" y="0" width="1920" height="1080" fill="#181825"></rect><path d="M0 712L45.7 730.5C91.3 749 182.7 786 274.2 793.3C365.7 800.7 457.3 778.3 548.8 751.2C640.3 724 731.7 692 823 679C914.3 666 1005.7 672 1097 689.5C1188.3 707 1279.7 736 1371.2 757C1462.7 778 1554.3 791 1645.8 783.5C1737.3 776 1828.7 748 1874.3 734L1920 720L1920 1081L1874.3 1081C1828.7 1081 1737.3 1081 1645.8 1081C1554.3 1081 1462.7 1081 1371.2 1081C1279.7 1081 1188.3 1081 1097 1081C1005.7 1081 914.3 1081 823 1081C731.7 1081 640.3 1081 548.8 1081C457.3 1081 365.7 1081 274.2 1081C182.7 1081 91.3 1081 45.7 1081L0 1081Z" fill="#9399b2"></path><path d="M0 847L45.7 858C91.3 869 182.7 891 274.2 883.3C365.7 875.7 457.3 838.3 548.8 815.2C640.3 792 731.7 783 823 789.8C914.3 796.7 1005.7 819.3 1097 824.5C1188.3 829.7 1279.7 817.3 1371.2 826.2C1462.7 835 1554.3 865 1645.8 869.3C1737.3 873.7 1828.7 852.3 1874.3 841.7L1920 831L1920 1081L1874.3 1081C1828.7 1081 1737.3 1081 1645.8 1081C1554.3 1081 1462.7 1081 1371.2 1081C1279.7 1081 1188.3 1081 1097 1081C1005.7 1081 914.3 1081 823 1081C731.7 1081 640.3 1081 548.8 1081C457.3 1081 365.7 1081 274.2 1081C182.7 1081 91.3 1081 45.7 1081L0 1081Z" fill="#606379"></path><path d="M0 932L45.7 938.5C91.3 945 182.7 958 274.2 952.7C365.7 947.3 457.3 923.7 548.8 920.2C640.3 916.7 731.7 933.3 823 936C914.3 938.7 1005.7 927.3 1097 922.8C1188.3 918.3 1279.7 920.7 1371.2 929C1462.7 937.3 1554.3 951.7 1645.8 954.3C1737.3 957 1828.7 948 1874.3 943.5L1920 939L1920 1081L1874.3 1081C1828.7 1081 1737.3 1081 1645.8 1081C1554.3 1081 1462.7 1081 1371.2 1081C1279.7 1081 1188.3 1081 1097 1081C1005.7 1081 914.3 1081 823 1081C731.7 1081 640.3 1081 548.8 1081C457.3 1081 365.7 1081 274.2 1081C182.7 1081 91.3 1081 45.7 1081L0 1081Z" fill="#313244"></path></svg>