<svg id="visual" viewBox="0 0 1920 1080" width="1920" height="1080" xmlns="http://www.w3.org/2000/svg" xmlns:xlink="http://www.w3.org/1999/xlink" version="1.1"><rect x="0" y="0" width="1920" height="1080" fill="#292C3C"></rect><path d="M0 750L45.7 755C91.3 760 182.7 770 274.2 774.2C365.7 778.3 457.3 776.7 548.8 792.5C640.3 808.3 731.7 841.7 823 858.2C914.3 874.7 1005.7 874.3 1097 852.5C1188.3 830.7 1279.7 787.3 1371.2 762.7C1462.7 738 1554.3 732 1645.8 748.5C1737.3 765 1828.7 804 1874.3 823.5L1920 843L1920 1081L1874.3 1081C1828.7 1081 1737.3 1081 1645.8 1081C1554.3 1081 1462.7 1081 1371.2 1081C1279.7 1081 1188.3 1081 1097 1081C1005.7 1081 914.3 1081 823 1081C731.7 1081 640.3 1081 548.8 1081C457.3 1081 365.7 1081 274.2 1081C182.7 1081 91.3 1081 45.7 1081L0 1081Z" fill="#414559" stroke-linecap="round" stroke-linejoin="miter"></path></svg>