<svg id="visual" viewBox="0 0 1920 1080" width="1920" height="1080" xmlns="http://www.w3.org/2000/svg" xmlns:xlink="http://www.w3.org/1999/xlink" version="1.1"><rect x="0" y="0" width="1920" height="1080" fill="#181926"></rect><path d="M0 696L45.7 706.3C91.3 716.7 182.7 737.3 274.2 735.2C365.7 733 457.3 708 548.8 697.3C640.3 686.7 731.7 690.3 823 700.2C914.3 710 1005.7 726 1097 736.3C1188.3 746.7 1279.7 751.3 1371.2 734.5C1462.7 717.7 1554.3 679.3 1645.8 669.7C1737.3 660 1828.7 679 1874.3 688.5L1920 698L1920 1081L1874.3 1081C1828.7 1081 1737.3 1081 1645.8 1081C1554.3 1081 1462.7 1081 1371.2 1081C1279.7 1081 1188.3 1081 1097 1081C1005.7 1081 914.3 1081 823 1081C731.7 1081 640.3 1081 548.8 1081C457.3 1081 365.7 1081 274.2 1081C182.7 1081 91.3 1081 45.7 1081L0 1081Z" fill="#939ab7"></path><path d="M0 735L45.7 748C91.3 761 182.7 787 274.2 791.2C365.7 795.3 457.3 777.7 548.8 763.2C640.3 748.7 731.7 737.3 823 745.7C914.3 754 1005.7 782 1097 786.3C1188.3 790.7 1279.7 771.3 1371.2 773.8C1462.7 776.3 1554.3 800.7 1645.8 817.8C1737.3 835 1828.7 845 1874.3 850L1920 855L1920 1081L1874.3 1081C1828.7 1081 1737.3 1081 1645.8 1081C1554.3 1081 1462.7 1081 1371.2 1081C1279.7 1081 1188.3 1081 1097 1081C1005.7 1081 914.3 1081 823 1081C731.7 1081 640.3 1081 548.8 1081C457.3 1081 365.7 1081 274.2 1081C182.7 1081 91.3 1081 45.7 1081L0 1081Z" fill="#7b819c"></path><path d="M0 914L45.7 904.7C91.3 895.3 182.7 876.7 274.2 869.7C365.7 862.7 457.3 867.3 548.8 860.3C640.3 853.3 731.7 834.7 823 842.2C914.3 849.7 1005.7 883.3 1097 883.2C1188.3 883 1279.7 849 1371.2 841.8C1462.7 834.7 1554.3 854.3 1645.8 862.8C1737.3 871.3 1828.7 868.7 1874.3 867.3L1920 866L1920 1081L1874.3 1081C1828.7 1081 1737.3 1081 1645.8 1081C1554.3 1081 1462.7 1081 1371.2 1081C1279.7 1081 1188.3 1081 1097 1081C1005.7 1081 914.3 1081 823 1081C731.7 1081 640.3 1081 548.8 1081C457.3 1081 365.7 1081 274.2 1081C182.7 1081 91.3 1081 45.7 1081L0 1081Z" fill="#636881"></path><path d="M0 945L45.7 932.2C91.3 919.3 182.7 893.7 274.2 899C365.7 904.3 457.3 940.7 548.8 942.7C640.3 944.7 731.7 912.3 823 911.2C914.3 910 1005.7 940 1097 956.2C1188.3 972.3 1279.7 974.7 1371.2 960.7C1462.7 946.7 1554.3 916.3 1645.8 902.8C1737.3 889.3 1828.7 892.7 1874.3 894.3L1920 896L1920 1081L1874.3 1081C1828.7 1081 1737.3 1081 1645.8 1081C1554.3 1081 1462.7 1081 1371.2 1081C1279.7 1081 1188.3 1081 1097 1081C1005.7 1081 914.3 1081 823 1081C731.7 1081 640.3 1081 548.8 1081C457.3 1081 365.7 1081 274.2 1081C182.7 1081 91.3 1081 45.7 1081L0 1081Z" fill="#4c5067"></path><path d="M0 993L45.7 999.5C91.3 1006 182.7 1019 274.2 1022.7C365.7 1026.3 457.3 1020.7 548.8 1019.7C640.3 1018.7 731.7 1022.3 823 1017C914.3 1011.7 1005.7 997.3 1097 997.8C1188.3 998.3 1279.7 1013.7 1371.2 1020C1462.7 1026.3 1554.3 1023.7 1645.8 1011.5C1737.3 999.3 1828.7 977.7 1874.3 966.8L1920 956L1920 1081L1874.3 1081C1828.7 1081 1737.3 1081 1645.8 1081C1554.3 1081 1462.7 1081 1371.2 1081C1279.7 1081 1188.3 1081 1097 1081C1005.7 1081 914.3 1081 823 1081C731.7 1081 640.3 1081 548.8 1081C457.3 1081 365.7 1081 274.2 1081C182.7 1081 91.3 1081 45.7 1081L0 1081Z" fill="#363a4f"></path></svg>