<svg id="visual" viewBox="0 0 1920 1080" width="1920" height="1080" xmlns="http://www.w3.org/2000/svg" xmlns:xlink="http://www.w3.org/1999/xlink" version="1.1"><rect x="0" y="0" width="1920" height="1080" fill="#E6E9EF"></rect><path d="M0 759L45.7 741.7C91.3 724.3 182.7 689.7 274.2 692.5C365.7 695.3 457.3 735.7 548.8 743.7C640.3 751.7 731.7 727.3 823 735.7C914.3 744 1005.7 785 1097 790C1188.3 795 1279.7 764 1371.2 735.5C1462.7 707 1554.3 681 1645.8 675.2C1737.3 669.3 1828.7 683.7 1874.3 690.8L1920 698L1920 1081L1874.3 1081C1828.7 1081 1737.3 1081 1645.8 1081C1554.3 1081 1462.7 1081 1371.2 1081C1279.7 1081 1188.3 1081 1097 1081C1005.7 1081 914.3 1081 823 1081C731.7 1081 640.3 1081 548.8 1081C457.3 1081 365.7 1081 274.2 1081C182.7 1081 91.3 1081 45.7 1081L0 1081Z" fill="#7c7f93"></path><path d="M0 852L45.7 852.7C91.3 853.3 182.7 854.7 274.2 850C365.7 845.3 457.3 834.7 548.8 820.3C640.3 806 731.7 788 823 792.2C914.3 796.3 1005.7 822.7 1097 826.7C1188.3 830.7 1279.7 812.3 1371.2 808.5C1462.7 804.7 1554.3 815.3 1645.8 821.8C1737.3 828.3 1828.7 830.7 1874.3 831.8L1920 833L1920 1081L1874.3 1081C1828.7 1081 1737.3 1081 1645.8 1081C1554.3 1081 1462.7 1081 1371.2 1081C1279.7 1081 1188.3 1081 1097 1081C1005.7 1081 914.3 1081 823 1081C731.7 1081 640.3 1081 548.8 1081C457.3 1081 365.7 1081 274.2 1081C182.7 1081 91.3 1081 45.7 1081L0 1081Z" fill="#a3a7b6"></path><path d="M0 980L45.7 977.5C91.3 975 182.7 970 274.2 955.5C365.7 941 457.3 917 548.8 907.8C640.3 898.7 731.7 904.3 823 918.2C914.3 932 1005.7 954 1097 969C1188.3 984 1279.7 992 1371.2 981.5C1462.7 971 1554.3 942 1645.8 925.3C1737.3 908.7 1828.7 904.3 1874.3 902.2L1920 900L1920 1081L1874.3 1081C1828.7 1081 1737.3 1081 1645.8 1081C1554.3 1081 1462.7 1081 1371.2 1081C1279.7 1081 1188.3 1081 1097 1081C1005.7 1081 914.3 1081 823 1081C731.7 1081 640.3 1081 548.8 1081C457.3 1081 365.7 1081 274.2 1081C182.7 1081 91.3 1081 45.7 1081L0 1081Z" fill="#ccd0da"></path></svg>