<svg id="visual" viewBox="0 0 1920 1080" width="1920" height="1080" xmlns="http://www.w3.org/2000/svg" xmlns:xlink="http://www.w3.org/1999/xlink" version="1.1"><rect x="0" y="0" width="1920" height="1080" fill="#11111b"></rect><path d="M0 629L45.7 651.5C91.3 674 182.7 719 274.2 735.8C365.7 752.7 457.3 741.3 548.8 725C640.3 708.7 731.7 687.3 823 679C914.3 670.7 1005.7 675.3 1097 689.5C1188.3 703.7 1279.7 727.3 1371.2 741.2C1462.7 755 1554.3 759 1645.8 749.3C1737.3 739.7 1828.7 716.3 1874.3 704.7L1920 693L1920 1081L1874.3 1081C1828.7 1081 1737.3 1081 1645.8 1081C1554.3 1081 1462.7 1081 1371.2 1081C1279.7 1081 1188.3 1081 1097 1081C1005.7 1081 914.3 1081 823 1081C731.7 1081 640.3 1081 548.8 1081C457.3 1081 365.7 1081 274.2 1081C182.7 1081 91.3 1081 45.7 1081L0 1081Z" fill="#9399b2"></path><path d="M0 734L45.7 739.7C91.3 745.3 182.7 756.7 274.2 755.7C365.7 754.7 457.3 741.3 548.8 748.7C640.3 756 731.7 784 823 804.5C914.3 825 1005.7 838 1097 825C1188.3 812 1279.7 773 1371.2 763.7C1462.7 754.3 1554.3 774.7 1645.8 788.7C1737.3 802.7 1828.7 810.3 1874.3 814.2L1920 818L1920 1081L1874.3 1081C1828.7 1081 1737.3 1081 1645.8 1081C1554.3 1081 1462.7 1081 1371.2 1081C1279.7 1081 1188.3 1081 1097 1081C1005.7 1081 914.3 1081 823 1081C731.7 1081 640.3 1081 548.8 1081C457.3 1081 365.7 1081 274.2 1081C182.7 1081 91.3 1081 45.7 1081L0 1081Z" fill="#797d95"></path><path d="M0 819L45.7 823.8C91.3 828.7 182.7 838.3 274.2 833.5C365.7 828.7 457.3 809.3 548.8 820.5C640.3 831.7 731.7 873.3 823 892.3C914.3 911.3 1005.7 907.7 1097 901.7C1188.3 895.7 1279.7 887.3 1371.2 877.3C1462.7 867.3 1554.3 855.7 1645.8 852.7C1737.3 849.7 1828.7 855.3 1874.3 858.2L1920 861L1920 1081L1874.3 1081C1828.7 1081 1737.3 1081 1645.8 1081C1554.3 1081 1462.7 1081 1371.2 1081C1279.7 1081 1188.3 1081 1097 1081C1005.7 1081 914.3 1081 823 1081C731.7 1081 640.3 1081 548.8 1081C457.3 1081 365.7 1081 274.2 1081C182.7 1081 91.3 1081 45.7 1081L0 1081Z" fill="#606379"></path><path d="M0 893L45.7 906.3C91.3 919.7 182.7 946.3 274.2 957.5C365.7 968.7 457.3 964.3 548.8 947.7C640.3 931 731.7 902 823 886.7C914.3 871.3 1005.7 869.7 1097 880.3C1188.3 891 1279.7 914 1371.2 931.3C1462.7 948.7 1554.3 960.3 1645.8 965.7C1737.3 971 1828.7 970 1874.3 969.5L1920 969L1920 1081L1874.3 1081C1828.7 1081 1737.3 1081 1645.8 1081C1554.3 1081 1462.7 1081 1371.2 1081C1279.7 1081 1188.3 1081 1097 1081C1005.7 1081 914.3 1081 823 1081C731.7 1081 640.3 1081 548.8 1081C457.3 1081 365.7 1081 274.2 1081C182.7 1081 91.3 1081 45.7 1081L0 1081Z" fill="#484a5e"></path><path d="M0 1024L45.7 1017.7C91.3 1011.3 182.7 998.7 274.2 997.2C365.7 995.7 457.3 1005.3 548.8 999.3C640.3 993.3 731.7 971.7 823 971.7C914.3 971.7 1005.7 993.3 1097 996C1188.3 998.7 1279.7 982.3 1371.2 975.8C1462.7 969.3 1554.3 972.7 1645.8 979C1737.3 985.3 1828.7 994.7 1874.3 999.3L1920 1004L1920 1081L1874.3 1081C1828.7 1081 1737.3 1081 1645.8 1081C1554.3 1081 1462.7 1081 1371.2 1081C1279.7 1081 1188.3 1081 1097 1081C1005.7 1081 914.3 1081 823 1081C731.7 1081 640.3 1081 548.8 1081C457.3 1081 365.7 1081 274.2 1081C182.7 1081 91.3 1081 45.7 1081L0 1081Z" fill="#313244"></path></svg>