<svg id="visual" viewBox="0 0 1920 1080" width="1920" height="1080" xmlns="http://www.w3.org/2000/svg" xmlns:xlink="http://www.w3.org/1999/xlink" version="1.1"><rect x="0" y="0" width="1920" height="1080" fill="#232634"></rect><path d="M0 716L45.7 720.8C91.3 725.7 182.7 735.3 274.2 743.2C365.7 751 457.3 757 548.8 745.8C640.3 734.7 731.7 706.3 823 689.2C914.3 672 1005.7 666 1097 658.7C1188.3 651.3 1279.7 642.7 1371.2 644.3C1462.7 646 1554.3 658 1645.8 669.7C1737.3 681.3 1828.7 692.7 1874.3 698.3L1920 704L1920 1081L1874.3 1081C1828.7 1081 1737.3 1081 1645.8 1081C1554.3 1081 1462.7 1081 1371.2 1081C1279.7 1081 1188.3 1081 1097 1081C1005.7 1081 914.3 1081 823 1081C731.7 1081 640.3 1081 548.8 1081C457.3 1081 365.7 1081 274.2 1081C182.7 1081 91.3 1081 45.7 1081L0 1081Z" fill="#949cbb"></path><path d="M0 763L45.7 761.7C91.3 760.3 182.7 757.7 274.2 761.3C365.7 765 457.3 775 548.8 783.7C640.3 792.3 731.7 799.7 823 805C914.3 810.3 1005.7 813.7 1097 819.8C1188.3 826 1279.7 835 1371.2 825.5C1462.7 816 1554.3 788 1645.8 773.2C1737.3 758.3 1828.7 756.7 1874.3 755.8L1920 755L1920 1081L1874.3 1081C1828.7 1081 1737.3 1081 1645.8 1081C1554.3 1081 1462.7 1081 1371.2 1081C1279.7 1081 1188.3 1081 1097 1081C1005.7 1081 914.3 1081 823 1081C731.7 1081 640.3 1081 548.8 1081C457.3 1081 365.7 1081 274.2 1081C182.7 1081 91.3 1081 45.7 1081L0 1081Z" fill="#7e85a1"></path><path d="M0 841L45.7 847C91.3 853 182.7 865 274.2 875C365.7 885 457.3 893 548.8 891.3C640.3 889.7 731.7 878.3 823 871.3C914.3 864.3 1005.7 861.7 1097 864.5C1188.3 867.3 1279.7 875.7 1371.2 871.3C1462.7 867 1554.3 850 1645.8 850.8C1737.3 851.7 1828.7 870.3 1874.3 879.7L1920 889L1920 1081L1874.3 1081C1828.7 1081 1737.3 1081 1645.8 1081C1554.3 1081 1462.7 1081 1371.2 1081C1279.7 1081 1188.3 1081 1097 1081C1005.7 1081 914.3 1081 823 1081C731.7 1081 640.3 1081 548.8 1081C457.3 1081 365.7 1081 274.2 1081C182.7 1081 91.3 1081 45.7 1081L0 1081Z" fill="#696f88"></path><path d="M0 935L45.7 938.7C91.3 942.3 182.7 949.7 274.2 939.5C365.7 929.3 457.3 901.7 548.8 901C640.3 900.3 731.7 926.7 823 941.5C914.3 956.3 1005.7 959.7 1097 945.3C1188.3 931 1279.7 899 1371.2 889.8C1462.7 880.7 1554.3 894.3 1645.8 904.7C1737.3 915 1828.7 922 1874.3 925.5L1920 929L1920 1081L1874.3 1081C1828.7 1081 1737.3 1081 1645.8 1081C1554.3 1081 1462.7 1081 1371.2 1081C1279.7 1081 1188.3 1081 1097 1081C1005.7 1081 914.3 1081 823 1081C731.7 1081 640.3 1081 548.8 1081C457.3 1081 365.7 1081 274.2 1081C182.7 1081 91.3 1081 45.7 1081L0 1081Z" fill="#555a70"></path><path d="M0 1005L45.7 1006.3C91.3 1007.7 182.7 1010.3 274.2 1010C365.7 1009.7 457.3 1006.3 548.8 995.8C640.3 985.3 731.7 967.7 823 957.8C914.3 948 1005.7 946 1097 957.2C1188.3 968.3 1279.7 992.7 1371.2 1005.3C1462.7 1018 1554.3 1019 1645.8 1019C1737.3 1019 1828.7 1018 1874.3 1017.5L1920 1017L1920 1081L1874.3 1081C1828.7 1081 1737.3 1081 1645.8 1081C1554.3 1081 1462.7 1081 1371.2 1081C1279.7 1081 1188.3 1081 1097 1081C1005.7 1081 914.3 1081 823 1081C731.7 1081 640.3 1081 548.8 1081C457.3 1081 365.7 1081 274.2 1081C182.7 1081 91.3 1081 45.7 1081L0 1081Z" fill="#414559"></path></svg>