<svg id="visual" viewBox="0 0 1920 1080" width="1920" height="1080" xmlns="http://www.w3.org/2000/svg" xmlns:xlink="http://www.w3.org/1999/xlink" version="1.1"><rect x="0" y="0" width="1920" height="1080" fill="#DCE0E8"></rect><path d="M0 644L45.7 657.7C91.3 671.3 182.7 698.7 274.2 715.7C365.7 732.7 457.3 739.3 548.8 732.2C640.3 725 731.7 704 823 710.3C914.3 716.7 1005.7 750.3 1097 743.7C1188.3 737 1279.7 690 1371.2 687.3C1462.7 684.7 1554.3 726.3 1645.8 748.3C1737.3 770.3 1828.7 772.7 1874.3 773.8L1920 775L1920 1081L1874.3 1081C1828.7 1081 1737.3 1081 1645.8 1081C1554.3 1081 1462.7 1081 1371.2 1081C1279.7 1081 1188.3 1081 1097 1081C1005.7 1081 914.3 1081 823 1081C731.7 1081 640.3 1081 548.8 1081C457.3 1081 365.7 1081 274.2 1081C182.7 1081 91.3 1081 45.7 1081L0 1081Z" fill="#7c7f93"></path><path d="M0 856L45.7 849.7C91.3 843.3 182.7 830.7 274.2 818.3C365.7 806 457.3 794 548.8 793C640.3 792 731.7 802 823 793.8C914.3 785.7 1005.7 759.3 1097 753.8C1188.3 748.3 1279.7 763.7 1371.2 781.3C1462.7 799 1554.3 819 1645.8 810C1737.3 801 1828.7 763 1874.3 744L1920 725L1920 1081L1874.3 1081C1828.7 1081 1737.3 1081 1645.8 1081C1554.3 1081 1462.7 1081 1371.2 1081C1279.7 1081 1188.3 1081 1097 1081C1005.7 1081 914.3 1081 823 1081C731.7 1081 640.3 1081 548.8 1081C457.3 1081 365.7 1081 274.2 1081C182.7 1081 91.3 1081 45.7 1081L0 1081Z" fill="#8f93a4"></path><path d="M0 808L45.7 819.5C91.3 831 182.7 854 274.2 869.2C365.7 884.3 457.3 891.7 548.8 891.7C640.3 891.7 731.7 884.3 823 874C914.3 863.7 1005.7 850.3 1097 835.3C1188.3 820.3 1279.7 803.7 1371.2 806.8C1462.7 810 1554.3 833 1645.8 846.8C1737.3 860.7 1828.7 865.3 1874.3 867.7L1920 870L1920 1081L1874.3 1081C1828.7 1081 1737.3 1081 1645.8 1081C1554.3 1081 1462.7 1081 1371.2 1081C1279.7 1081 1188.3 1081 1097 1081C1005.7 1081 914.3 1081 823 1081C731.7 1081 640.3 1081 548.8 1081C457.3 1081 365.7 1081 274.2 1081C182.7 1081 91.3 1081 45.7 1081L0 1081Z" fill="#a3a7b6"></path><path d="M0 971L45.7 954.7C91.3 938.3 182.7 905.7 274.2 888.7C365.7 871.7 457.3 870.3 548.8 874.3C640.3 878.3 731.7 887.7 823 887.3C914.3 887 1005.7 877 1097 886.8C1188.3 896.7 1279.7 926.3 1371.2 941.7C1462.7 957 1554.3 958 1645.8 948.7C1737.3 939.3 1828.7 919.7 1874.3 909.8L1920 900L1920 1081L1874.3 1081C1828.7 1081 1737.3 1081 1645.8 1081C1554.3 1081 1462.7 1081 1371.2 1081C1279.7 1081 1188.3 1081 1097 1081C1005.7 1081 914.3 1081 823 1081C731.7 1081 640.3 1081 548.8 1081C457.3 1081 365.7 1081 274.2 1081C182.7 1081 91.3 1081 45.7 1081L0 1081Z" fill="#b7bbc8"></path><path d="M0 989L45.7 988.5C91.3 988 182.7 987 274.2 986.7C365.7 986.3 457.3 986.7 548.8 991.5C640.3 996.3 731.7 1005.7 823 1006.8C914.3 1008 1005.7 1001 1097 1000.7C1188.3 1000.3 1279.7 1006.7 1371.2 1009.3C1462.7 1012 1554.3 1011 1645.8 1001.5C1737.3 992 1828.7 974 1874.3 965L1920 956L1920 1081L1874.3 1081C1828.7 1081 1737.3 1081 1645.8 1081C1554.3 1081 1462.7 1081 1371.2 1081C1279.7 1081 1188.3 1081 1097 1081C1005.7 1081 914.3 1081 823 1081C731.7 1081 640.3 1081 548.8 1081C457.3 1081 365.7 1081 274.2 1081C182.7 1081 91.3 1081 45.7 1081L0 1081Z" fill="#ccd0da"></path></svg>